<?xml version="1.0" encoding="utf-8"?>
<!-- Generator: Adobe Illustrator 24.3.0, SVG Export Plug-In . SVG Version: 6.00 Build 0)  -->
<svg version="1.1" id="Layer_1" xmlns="http://www.w3.org/2000/svg" xmlns:xlink="http://www.w3.org/1999/xlink" x="0px" y="0px"
	 viewBox="0 0 636 300" style="enable-background:new 0 0 636 300;" xml:space="preserve">
<style type="text/css">
	.st0{fill:#625F5B;}
	.st1{fill:#84817D;}
	.st2{fill:#797672;}
	.st3{fill:#BDD8F9;}
	.st4{fill:#81B5F3;}
	.st5{fill:#60A2F0;}
	.st6{fill:#3085E9;}
	.st7{fill:#77E3FB;}
	.st8{fill:#E56B56;}
	.st9{fill:#CCCAC7;}
	.st10{fill:#56534F;}
	.st11{fill:#FFFFFF;}
	.st12{fill:#908D89;}
	.st13{fill:none;stroke:#F7B548;stroke-width:1.1872;stroke-miterlimit:10;}
	.st14{fill:#B3AFAB;}
	.st15{fill:#29C3E5;}
	.st16{fill:#179BB8;}
	.st17{fill:#F7B548;}
	.st18{fill:#D5D3D0;}
	.st19{fill:#BBB8B4;}
	.st20{fill:#666666;}
	.st21{fill:#E8A53F;}
	.st22{fill:#E6E4E3;}
	.st23{fill:#FCCF84;}
	.st24{fill:#9C9894;}
	.st25{fill:#F3F3F3;}
	.st26{fill:url(#SVGID_1_);}
	.st27{fill:#8A6FE8;}
	.st28{fill:url(#SVGID_2_);}
	.st29{fill:url(#SVGID_3_);}
	.st30{fill:#522CD5;}
	.st31{fill:url(#SVGID_4_);}
	.st32{fill:url(#SVGID_5_);}
	.st33{fill:url(#SVGID_6_);}
	.st34{fill:url(#SVGID_7_);}
	.st35{fill:url(#SVGID_8_);}
	.st36{fill:url(#SVGID_9_);}
	.st37{fill:#D8CFF7;}
	.st38{fill:#512BD4;}
	.st39{fill:url(#SVGID_10_);}
	.st40{fill:#A08BE8;}
	.st41{fill:#8065E0;}
	.st42{fill:url(#SVGID_11_);}
	.st43{fill:url(#SVGID_12_);}
	.st44{fill:#8C9091;}
	.st45{fill:#1FB1D1;}
	.st46{fill:#ED9583;}
	.st47{fill:#1595B2;}
	.st48{fill:#E86E58;}
	.st49{fill:#F8BB55;}
	.st50{fill:#E29E3B;}
	.st51{fill:#F8B84F;}
	.st52{fill:#28C2D1;}
	.st53{fill:#CF5746;}
	.st54{fill:#FFE5B9;}
	.st55{fill:#0F849E;}
	.st56{fill:#BBF1FD;}
	.st57{fill:#22B5D6;}
	.st58{fill:#5C2D91;}
	.st59{fill:#C5D43B;}
	.st60{fill:#E1EA95;}
	.st61{fill:#D8E8FB;}
	.st62{fill:#8EE8FC;}
	.st63{fill:#DDDBDA;}
	.st64{fill:#A3C9F6;}
	.st65{fill:#DF9B39;}
	.st66{fill:#2980E7;}
	.st67{fill:url(#SVGID_13_);}
	.st68{fill:url(#SVGID_14_);}
	.st69{fill:#4995EE;}
	.st70{fill:#0B7891;}
	.st71{fill:#60DEFA;}
	.st72{fill:#1DACCC;}
	.st73{fill:#138FAB;}
	.st74{fill:#27BEE0;}
	.st75{fill:#3E8EED;}
	.st76{fill:#FDD696;}
	.st77{fill:#CAE0FA;}
	.st78{fill:#1C77E2;}
	.st79{fill:#98C2F5;}
	.st80{fill:#EEEDEC;}
	.st81{fill:#42403C;}
	.st82{fill:#605D5A;}
	.st83{fill:url(#SVGID_15_);}
	.st84{fill:#E1DFDD;}
	.st85{fill:url(#SVGID_16_);}
	.st86{fill:url(#SVGID_17_);}
	.st87{fill:url(#SVGID_18_);}
	.st88{fill:url(#SVGID_19_);}
	.st89{fill:url(#SVGID_20_);}
	.st90{fill:url(#SVGID_21_);}
	.st91{fill:url(#SVGID_22_);}
	.st92{fill:url(#SVGID_23_);}
	.st93{fill:url(#SVGID_24_);}
	.st94{fill:url(#SVGID_25_);}
	.st95{fill:url(#SVGID_26_);}
	.st96{fill:url(#SVGID_27_);}
	.st97{fill:url(#SVGID_28_);}
	.st98{fill:url(#SVGID_29_);}
	.st99{fill:none;}
</style>
<g>
	<path class="st45" d="M172.5,87.5l-39.8,3.8c-0.8,0-1.3,0.7-1.3,1.3v160.9c0,0.7,0.6,1.3,1.5,1.3l38.5,1.6c0.8,0,1.7-0.7,1.7-1.6
		l0.4-164.7C173.1,89.5,173.3,87.5,172.5,87.5z"/>
	<path class="st46" d="M148,107.7l-32.2,2.7c-1,0-1.9,0.9-1.9,2v140.5c0,0.9,0.8,1.8,1.7,1.8l31.6,3.1c1.3,0.2,2.3-0.7,2.3-2
		c1-15.7,6.9-113.7,5.7-125.7c-1-10.2-4-18.2-5.2-21.3C149.7,108.1,148.8,107.5,148,107.7z"/>
	<path class="st47" d="M172.9,256.8l41.2-2.2c1,0,1.9-0.9,1.9-2V91.1c0-1.1-0.8-2-1.9-2l-41.2-1.6c-1,0-1.9,0.9-1.9,2v165.6
		C170.8,256,171.8,256.8,172.9,256.8z"/>
	<path class="st48" d="M149.4,258.2l20.3-1.1c0.6,0,1-0.4,1-1.1V109c0-0.7-0.4-1.1-1-1.1l-20.3-0.4c-0.6,0-1,0.4-1,1.1v148.7
		C148.2,257.7,148.8,258.2,149.4,258.2z"/>
	<path class="st18" d="M122.2,257.7l-31.8,1.8c-0.8,0-1.7,0-2.5-0.2l-28.7-5.1l54.7-4.2L122.2,257.7z"/>
	<path class="st49" d="M112.2,137.8L87.7,140c-0.8,0-1.7,0.7-1.9,1.6L57.5,251.7c-0.4,1.3,0.6,2.4,2.1,2.4l32.2-2
		c1,0,1.9-0.9,2.1-1.8l20.3-110.2C114.7,138.9,113.6,137.8,112.2,137.8z"/>
	<path class="st50" d="M90.4,253.1l31,4.7c1.5,0.2,2.9-0.9,3.4-2.2l23-108.2c0.2-1.6-0.6-2.9-2.1-3.1l-30.4-6.4
		c-1.5-0.2-2.9,0.7-3.4,2L88.1,250C87.7,251.3,88.7,252.9,90.4,253.1z"/>
	<path class="st51" d="M108.6,192.3l20.1,3.8c1.3,0.2,2.5-0.7,2.7-1.8l7.7-35.9c0.2-1.3-0.6-2.4-1.9-2.7l-19.9-4
		c-1.3-0.2-2.5,0.4-2.9,1.8l-8,36.4C106.5,191,107.4,192.1,108.6,192.3z"/>
	<path class="st52" d="M170.8,140.9v-40.8l45,1.1v40.1L170.8,140.9z"/>
	<path class="st53" d="M153,214.3l13.6-0.4v-80.2l-13.6-0.2V214.3z"/>
	<path class="st11" d="M153,156.7v-23.3l13.6,0.2v23.1H153z"/>
	<g>
		<path class="st14" d="M443.6,207.4l-207.4,9.8c-3.7,0.2-6.8-2.4-6.8-5.9V61.6c0-3.4,3-6,6.8-5.8l207.4,12.8c2.7,0.2,5,2.7,5,5.6
			v127.6C448.5,204.8,446.3,207.2,443.6,207.4z"/>
		<path class="st0" d="M446,207.3l-206.5,9.8c-3.7,0.2-6.7-2.4-6.7-5.9V61.8c0-3.4,3-6,6.7-5.8L446,68.8c2.7,0.2,4.9,2.7,4.9,5.6
			v127.4C450.9,204.7,448.7,207.1,446,207.3z"/>
		<path class="st22" d="M440.6,194.3l-193.8,7.2c-1,0-1.8-0.7-1.8-1.6V67.5c0-0.9,0.8-1.6,1.8-1.6l193.8,10.7c0.8,0,1.4,0.7,1.4,1.5
			v114.6C441.9,193.6,441.3,194.2,440.6,194.3z"/>
		<path class="st24" d="M502,226.5c0-1.6,0-2.7,0-3.2c0-0.4-52.5-13.4-52.5-13.4l-214.3,6.2v2.4c0,0,0.1,2.1,2.4,2.8
			c2.4,0.7,65.2,18.5,65.2,18.5c3.2,0.9,6.5,1.2,9.8,1l187.9-12.5C501.8,228.1,502,227.5,502,226.5z"/>
		<path class="st9" d="M501,224.5l-188.3,12c-3.3,0.2-6.7-0.1-9.8-1l-67.7-19.4l214.4-10l51.8,16.2
			C502.4,222.6,502.2,224.4,501,224.5z"/>
	</g>
	<path class="st52" d="M419.3,86v-9.4c0-0.8-0.6-1.4-1.3-1.5l-171.7-9.5c-0.9-0.1-1.7,0.6-1.7,1.5v10.7L419.3,86z"/>
	<g>
		<path class="st52" d="M572.2,143.9l-74.7,0.4c-3.2,0-5.8-2.5-5.7-5.6l0.9-52.5c0.1-3.1,2.7-5.4,5.9-5.2l74.4,5.4
			c2.6,0.2,4.7,2.6,4.6,5.4l-0.6,47.1C577,141.6,574.8,143.9,572.2,143.9z"/>
		<path class="st0" d="M577.5,97.4l0.1-7.7c0-1.7-1.2-3.2-2.8-3.3l-78.5-5.7c-2-0.1-3.6,1.3-3.6,3.2l-0.1,8.6L577.5,97.4z"/>
		<path class="st12" d="M503,87.6c0,1.3-1.1,2.3-2.4,2.2c-1.3-0.1-2.4-1.2-2.3-2.5c0-1.3,1.1-2.3,2.4-2.2
			C501.9,85.2,503,86.3,503,87.6z"/>
		<path class="st12" d="M511.3,88.1c0,1.3-1.1,2.2-2.4,2.2c-1.3-0.1-2.3-1.2-2.3-2.5c0-1.3,1.1-2.2,2.4-2.2
			C510.3,85.8,511.4,86.9,511.3,88.1z"/>
		<path class="st12" d="M519.6,88.7c0,1.3-1.1,2.2-2.3,2.1c-1.3-0.1-2.3-1.2-2.3-2.4c0-1.3,1.1-2.2,2.3-2.1
			C518.6,86.3,519.6,87.4,519.6,88.7z"/>
		<g>
			<path class="st11" d="M527.5,127.4l-18.3-8.5l0-1.9l18.5-8.5l0,2.8l-15,6.6l14.8,6.6L527.5,127.4z"/>
			<path class="st11" d="M543.1,105l-10.3,27l-3.1,0l10.4-27.1L543.1,105z"/>
			<path class="st11" d="M545.1,124.9l13.8-5.7l-13.6-7.3l0-2.8l16.7,9.3l0,1.8l-16.9,7.4L545.1,124.9z"/>
		</g>
	</g>
	<path class="st0" d="M419.9,172.1v-45.3c0-3.1,2.4-5.5,5.4-5.4l87.8,3.7c2.2,0,4.1,2.3,4.1,4.9v39.3c0,2.7-1.8,4.9-4.1,4.9l-87.8,3
		C422.2,177.5,419.9,175.2,419.9,172.1z"/>
	<path class="st50" d="M423.6,170.4v-42.1c0-1.6,1.4-3.1,2.8-2.8l86,3.1c1.2,0,2.2,1.2,2.2,2.7v36.9c0,1.5-1,2.7-2.2,2.7l-86,2.5
		C424.8,173.5,423.6,172.3,423.6,170.4z"/>
	<path class="st0" d="M432.3,121.7l-7.2-0.4c-2.8-0.1-5.4,2.3-5.4,5.4v45.4c0,3.1,2.4,5.4,5.4,5.4l7.2-0.2V121.7z"/>
	<path class="st0" d="M513.1,125l-5.7-0.4v49.6l5.7-0.1c2.2-0.1,4.1-2.3,4.1-4.9V130C517.2,127.3,515.4,125.1,513.1,125z"/>
	<path class="st1" d="M513.5,159.1c0.4,0,0.8-0.5,0.8-1v-16.3c0-0.5-0.4-1-0.8-1c-0.4,0-0.8,0.5-0.8,1v16.3
		C512.5,158.6,512.9,159.1,513.5,159.1z"/>
	<path class="st54" d="M485.6,141.4l-45.2-0.5v-9.3l45.2,1.3V141.4z"/>
	<path class="st11" d="M450.9,141l-10.5-0.1v-9.3l10.5,0.1V141z"/>
	<path class="st54" d="M485.6,153.6l-45.2,0.2v-9.3l45.2,0.3V153.6z"/>
	<path class="st11" d="M450.9,153.8l-10.5,0.1v-9.3l10.5,0V153.8z"/>
	<path class="st54" d="M485.6,165.6l-45.2,0.9v-9.3l45.2-0.4V165.6z"/>
	<path class="st11" d="M450.9,166.4l-10.5,0.2v-9.3l10.5-0.1V166.4z"/>
	<g>
		<path class="st55" d="M482.9,48.7l-35.2,6.7l0.2,42.9c-1-0.9-2.2-0.5-3.5-0.6c-1.4-0.1-2.4-1.7-3.4-0.8v-42l-37.6-12.6v52l36,8.6
			c1.2,2.1,2.6,3,4.8,3.1c2.2,0.1,3.7-0.8,4.7-2.7l33.6-5.7L482.9,48.7z"/>
		<path class="st56" d="M477.7,43.9c0,0-25.4,3.2-28.8,4c-3.3,0.9-4.7,3.4-4.7,8.3s0,41.7,0,41.7l33.9-6.1L477.7,43.9z"/>
		<path class="st7" d="M409.5,38.2c0,0,26.8,7.6,30.4,9c3.6,1.4,4.8,4.2,4.8,9.1s-0.2,41.6-0.2,41.6l-35.8-9.2L409.5,38.2z"/>
		<path class="st14" d="M437.9,56.2l-21.7-6.3c-0.4,0-0.6-0.5-0.6-1c0-0.5,0.4-0.7,0.8-0.6l21.7,6.4c0.4,0,0.6,0.5,0.6,0.9
			C438.5,56.1,438.3,56.3,437.9,56.2z"/>
		<path class="st14" d="M437.9,63.2L416.1,57c-0.4,0-0.6-0.5-0.6-1s0.4-0.7,0.8-0.6l21.7,6.2c0.4,0,0.6,0.5,0.6,0.9
			C438.5,63,438.3,63.2,437.9,63.2z"/>
		<path class="st14" d="M437.9,70.1L416.1,64c-0.4,0-0.6-0.5-0.6-1c0-0.5,0.4-0.7,0.8-0.6l21.7,6.1c0.4,0,0.6,0.5,0.6,0.9
			C438.5,69.9,438.3,70.1,437.9,70.1z"/>
		<path class="st14" d="M437.9,77.1l-21.7-6c-0.4,0-0.6-0.5-0.6-0.9s0.4-0.7,0.8-0.6l21.7,6c0.4,0,0.6,0.5,0.6,0.9
			C438.5,76.9,438.3,77.1,437.9,77.1z"/>
		<path class="st14" d="M450.7,57.2l20.6-3.1c0.4,0,0.6-0.4,0.6-0.8c0-0.4-0.4-0.7-0.8-0.7l-20.6,3.1c-0.4,0-0.6,0.4-0.6,0.8
			C450.1,56.9,450.3,57.1,450.7,57.2z"/>
		<path class="st14" d="M450.7,64l20.6-3.2c0.4,0,0.6-0.4,0.6-0.8c0-0.4-0.4-0.7-0.8-0.7l-20.6,3.2c-0.4,0-0.6,0.4-0.6,0.8
			C450.1,63.8,450.3,64,450.7,64z"/>
		<path class="st14" d="M450.7,70.9l20.6-3.3c0.4,0,0.6-0.4,0.6-0.8s-0.4-0.7-0.8-0.7l-20.6,3.3c-0.4,0-0.6,0.4-0.6,0.9
			C450.1,70.6,450.3,70.9,450.7,70.9z"/>
		<path class="st14" d="M450.7,77.8l20.6-3.4c0.4,0,0.6-0.4,0.6-0.8s-0.4-0.7-0.8-0.7l-20.6,3.4c-0.4,0-0.6,0.4-0.6,0.9
			C450.1,77.5,450.3,77.7,450.7,77.8z"/>
		<path class="st57" d="M441.8,98.9c0.8-0.4,1.8-0.8,2.6-0.8c1,0,1.8,0.3,2.6,0.8l32.4-5V49l-1.9-5.1l-0.2,47.1
			c0,0-26.2,3.9-28.6,4.5c-2.4,0.6-4.3,2.7-4.3,2.7s-1-1.8-4-2.8c-3-1-30.7-7.4-30.7-7.4V38.7l-2.1,5.6l0.2,47.2L441.8,98.9z"/>
	</g>
	<path class="st58" d="M382.8,125.8c-1.5,10-6.3,19.2-13.6,25.8c-7.3,6.6-16.5,10.3-26.1,10.4c-1.9,0.1-3.9,0-5.8-0.4
		c-4-0.7-7.7-2.9-10.4-6.1c-2.7-3.2-4.3-7.4-4.4-11.7c0-4.8,1.9-9.4,5.1-12.8c3.2-3.4,7.6-5.3,12.1-5.4c4.5,0,8.9,1.8,12.2,5.2
		c3.3,3.4,5.1,7.9,5.2,12.7c0.1,3-1.2,5.7-3.7,5.8c-2.7,0-4-2.1-4-4.8v-7.7c0-1.2-0.5-2.4-1.3-3.3c-0.8-0.9-2-1.4-3.1-1.4h-6.1
		c-1.8,0-3.5,0.4-5.1,1.3c-1.6,0.9-2.9,2.2-3.9,3.8c-1,1.6-1.6,3.4-1.7,5.3c-0.1,1.9,0.2,3.8,0.9,5.5c0.7,1.7,1.8,3.2,3.2,4.4
		c1.4,1.1,3.1,1.9,4.8,2.2c1.8,0.3,3.6,0.1,5.2-0.5c1.7-0.6,3.2-1.7,4.4-3.1l0.2-0.3l0.2,0.4c0.7,1.1,1.7,1.9,2.8,2.5
		c1.1,0.6,2.4,0.8,3.6,0.8c2.2-0.2,4.3-1.2,5.7-3c1.5-1.8,2.2-4,2.1-6.4c0-2-0.2-4-0.6-6c-1.1-5.5-4.2-10.4-8.5-13.7
		c-4.3-3.3-9.7-4.8-15-4.2c-5.3,0.6-10.2,3.3-13.8,7.5c-3.6,4.2-5.5,9.7-5.5,15.3c0.1,6,2.3,11.7,6.3,16c4,4.3,9.4,6.7,15,6.9
		c0,0,1.6,0.2,3.4,0.1c8.8-0.1,17.3-2.8,24.7-7.8c0.1-0.1,0.2,0.1,0.1,0.2c-3.6,4.1-8,7.3-12.9,9.4c-4.9,2.1-10.1,3.1-15.4,2.8
		c-3.4,0.1-6.9-0.6-10.1-2c-3.2-1.4-6.1-3.4-8.5-6c-2.4-2.6-4.3-5.7-5.6-9.1c-1.3-3.4-1.9-7-1.8-10.7c0-4.3,1-8.6,2.8-12.5
		c1.8-3.9,4.5-7.3,7.8-9.9c4.4-3.4,9.8-5.3,15.2-5.3h8.2c3.2,0,6.4-0.7,9.3-2.1c2.9-1.4,5.6-3.4,7.7-5.9c0-0.1,0.1-0.1,0.2-0.1
		c0.1,0,0.1,0,0.2,0c0.1,0,0.1,0.1,0.2,0.1c0,0.1,0.1,0.1,0,0.2c-0.3,3.9-1.6,7.7-3.6,11c0,0.1,0,0.1,0,0.2c0,0.1,0,0.1,0.1,0.2
		c0,0.1,0.1,0.1,0.1,0.1s0.1,0,0.2,0c3.8-0.9,7.3-2.7,10.3-5.4c3-2.6,5.4-5.9,6.9-9.7c0-0.1,0.1-0.1,0.2-0.2c0.1,0,0.1-0.1,0.2-0.1
		c0.1,0,0.1,0,0.2,0.1c0.1,0,0.1,0.1,0.2,0.2C383,111.1,384,118.5,382.8,125.8z M338.7,136.5c-1.3,0-2.5,0.4-3.5,1.1
		c-1,0.7-1.9,1.8-2.3,3c-0.5,1.2-0.6,2.6-0.4,3.9c0.2,1.3,0.8,2.5,1.7,3.4c0.9,0.9,2,1.6,3.2,1.8c1.2,0.3,2.5,0.1,3.7-0.4
		c1.2-0.5,2.2-1.4,2.8-2.5c0.7-1.1,1.1-2.4,1.1-3.7V137c0-0.1-0.1-0.2-0.1-0.3c-0.1-0.1-0.2-0.1-0.3-0.1L338.7,136.5z"/>
</g>
</svg>
